<svg width="36" height="37" viewBox="0 0 36 37" fill="none" xmlns="http://www.w3.org/2000/svg">
<path fill-rule="evenodd" clip-rule="evenodd" d="M26.7906 21.5126C27.9074 21.5126 28.8447 22.4343 28.674 23.5371C27.6722 30.0253 22.1179 34.8427 15.4189 34.8427C8.00731 34.8427 2 28.8353 2 21.4255C2 15.3206 6.6379 9.63389 11.8595 8.3481C12.9815 8.07108 14.1314 8.86033 14.1314 10.0154C14.1314 17.8417 14.3944 19.8662 15.8806 20.9673C17.3667 22.0684 19.1142 21.5126 26.7906 21.5126Z" stroke="white" stroke-width="3" stroke-linecap="round" stroke-linejoin="round"/>
<path fill-rule="evenodd" clip-rule="evenodd" d="M34.0977 14.9956C34.1866 9.96739 28.0103 1.86239 20.4837 2.00177C19.8983 2.01223 19.4296 2.50006 19.4035 3.08372C19.2136 7.2181 19.4697 12.5756 19.6126 15.0043C19.6561 15.7604 20.2502 16.3545 21.0046 16.3981C23.5013 16.5409 29.0539 16.7361 33.129 16.1193C33.6831 16.0357 34.089 15.5548 34.0977 14.9956Z" stroke="white" stroke-width="3" stroke-linecap="round" stroke-linejoin="round"/>
</svg>
