<svg width="96" height="53" viewBox="0 0 96 53" fill="none" xmlns="http://www.w3.org/2000/svg">
<path d="M85.9878 43.5322L64.924 38.1157C64.3783 37.9754 64.438 37.0668 64.9888 36.9484C74.4274 34.9198 78.5853 27.3776 79.947 21.9059C80.0831 21.3591 81.0399 21.3138 81.1802 21.8595L86.5966 42.9234C86.6913 43.2918 86.3563 43.6269 85.9878 43.5322Z" fill="#1B208D"/>
<rect width="72" height="28" transform="matrix(-1 0 0 1 72 0)" fill="#1B208D"/>
<path d="M18.6364 7.36364H17.25V16.5227H17.1364L10.7727 7.36364H9.40909V19H10.8182V9.86364H10.9318L17.2727 19H18.6364V7.36364ZM23.8423 19.2045C25.3651 19.2045 26.1605 18.3864 26.4332 17.8182H26.5014V19H27.8423V13.25C27.8423 10.4773 25.7287 10.1591 24.6151 10.1591C23.2969 10.1591 21.7969 10.6136 21.1151 12.2045L22.3878 12.6591C22.6832 12.0227 23.3821 11.3409 24.6605 11.3409C25.8935 11.3409 26.5014 11.9943 26.5014 13.1136V13.1591C26.5014 13.8068 25.8423 13.75 24.2514 13.9545C22.6321 14.1648 20.8651 14.5227 20.8651 16.5227C20.8651 18.2273 22.1832 19.2045 23.8423 19.2045ZM24.0469 18C22.9787 18 22.206 17.5227 22.206 16.5909C22.206 15.5682 23.1378 15.25 24.1832 15.1136C24.7514 15.0455 26.2741 14.8864 26.5014 14.6136V15.8409C26.5014 16.9318 25.6378 18 24.0469 18ZM34.0852 10.2727H32.2216V8.18182H30.8807V10.2727H29.5625V11.4091H30.8807V16.8636C30.8807 18.3864 32.108 19.1136 33.2443 19.1136C33.7443 19.1136 34.0625 19.0227 34.2443 18.9545L33.9716 17.75C33.858 17.7727 33.6761 17.8182 33.3807 17.8182C32.7898 17.8182 32.2216 17.6364 32.2216 16.5V11.4091H34.0852V10.2727ZM37.6307 13.75C37.6307 12.2273 38.6023 11.3636 39.9261 11.3636C41.1875 11.3636 41.9489 12.1591 41.9489 13.5455V19H43.2898V13.4545C43.2898 11.2102 42.0966 10.1591 40.3125 10.1591C38.9375 10.1591 38.1534 10.733 37.7443 11.6364H37.6307V7.36364H36.2898V19H37.6307V13.75ZM48.3111 19.2045C49.8338 19.2045 50.6293 18.3864 50.902 17.8182H50.9702V19H52.3111V13.25C52.3111 10.4773 50.1974 10.1591 49.0838 10.1591C47.7656 10.1591 46.2656 10.6136 45.5838 12.2045L46.8565 12.6591C47.152 12.0227 47.8509 11.3409 49.1293 11.3409C50.3622 11.3409 50.9702 11.9943 50.9702 13.1136V13.1591C50.9702 13.8068 50.3111 13.75 48.7202 13.9545C47.1009 14.1648 45.3338 14.5227 45.3338 16.5227C45.3338 18.2273 46.652 19.2045 48.3111 19.2045ZM48.5156 18C47.4474 18 46.6747 17.5227 46.6747 16.5909C46.6747 15.5682 47.6065 15.25 48.652 15.1136C49.2202 15.0455 50.7429 14.8864 50.9702 14.6136V15.8409C50.9702 16.9318 50.1065 18 48.5156 18ZM56.0994 13.75C56.0994 12.2273 57.0426 11.3636 58.3267 11.3636C59.571 11.3636 60.3267 12.1761 60.3267 13.5455V19H61.6676V13.4545C61.6676 11.2273 60.4801 10.1591 58.7131 10.1591C57.3949 10.1591 56.5767 10.75 56.1676 11.6364H56.054V10.2727H54.7585V19H56.0994V13.75Z" fill="white"/>
</svg>
