<svg width="96" height="53" viewBox="0 0 96 53" fill="none" xmlns="http://www.w3.org/2000/svg">
<path d="M10.0122 43.5322L31.076 38.1157C31.6217 37.9754 31.562 37.0668 31.0112 36.9484C21.5726 34.9198 17.4147 27.3776 16.053 21.9059C15.9169 21.3591 14.9601 21.3138 14.8198 21.8595L9.40341 42.9234C9.30867 43.2918 9.64374 43.6269 10.0122 43.5322Z" fill="#3FC0FC"/>
<rect x="24" width="72" height="28" fill="#3FC0FC"/>
<path d="M48.808 7.64V12.52H43.688V7.64H41.88V19H43.688V14.2H48.808V19H50.616V7.64H48.808ZM56.012 19.16C57.532 19.16 58.588 18.328 58.892 17.672H58.94V19H60.7V10.68H58.94V12.008H58.892C58.588 11.352 57.532 10.52 56.012 10.52C54.044 10.52 51.98 11.976 51.98 14.84C51.98 17.704 54.044 19.16 56.012 19.16ZM56.348 17.56C55.02 17.56 53.724 16.632 53.724 14.84C53.724 13.048 55.02 12.12 56.348 12.12C57.692 12.12 58.988 13.048 58.988 14.84C58.988 16.632 57.692 17.56 56.348 17.56ZM66.8581 10.52C65.3381 10.52 64.5061 11.576 64.2181 12.824V10.68H62.4581V19H64.2181V15.112C64.2181 13.368 65.2901 12.216 66.8741 12.216C67.0661 12.216 67.2101 12.232 67.3861 12.264V10.584C67.2101 10.536 67.0501 10.52 66.8581 10.52ZM73.1238 10.52C71.6038 10.52 70.7718 11.576 70.4838 12.824V10.68H68.7238V19H70.4838V15.112C70.4838 13.368 71.5558 12.216 73.1398 12.216C73.3318 12.216 73.4758 12.232 73.6518 12.264V10.584C73.4758 10.536 73.3158 10.52 73.1238 10.52ZM81.2774 10.68L78.7654 16.872L76.2374 10.68H74.4294L77.9014 18.936L76.5254 22.04H78.2694L79.5814 19L83.1014 10.68H81.2774Z" fill="white"/>
</svg>
