<svg width="100" height="93" viewBox="0 0 100 93" fill="none" xmlns="http://www.w3.org/2000/svg">
<path fill-rule="evenodd" clip-rule="evenodd" d="M11.8426 28.2586C14.8871 20.6099 16.8746 12.4752 18.7424 4.57769C19.1388 2.87607 18.112 1.1489 16.4402 0.847782C14.7801 0.423376 13.108 1.49285 12.7245 3.07132C10.921 10.7266 9.02248 18.6201 6.09951 25.9081C5.46855 27.4604 6.23715 29.2858 7.8207 29.9512C9.40302 30.6164 11.2104 29.8108 11.8426 28.2586Z" fill="#1B208D"/>
<path fill-rule="evenodd" clip-rule="evenodd" d="M40.6803 55.4633C54.9657 44.145 67.7538 31.0495 82.3604 20.0142C83.719 19.0369 83.9936 17.0733 82.9647 15.7193C81.9346 14.3651 79.9967 14.0364 78.6252 15.1369C63.9803 26.1682 51.1553 39.2597 36.8317 50.574C35.4897 51.6776 35.2644 53.6459 36.3265 55.0035C37.4004 56.2377 39.3383 56.5669 40.6803 55.4633Z" fill="#1B208D"/>
<path fill-rule="evenodd" clip-rule="evenodd" d="M87.9619 84.494C80.5135 84.0809 73.0652 83.6671 65.6155 83.2539C63.9183 83.0746 62.4517 84.4149 62.3521 86.1479C62.2538 87.881 63.5684 89.2645 65.2668 89.4438C72.7276 89.8582 80.187 90.2732 87.6465 90.6875C89.3567 90.7436 90.8146 89.4029 90.9044 87.6689C90.9811 86.058 89.6709 84.55 87.9619 84.494Z" fill="#1B208D"/>
</svg>
